# xmcd
#
# Track frame offsets: 
#        150
#        17350
#        33970
#        55103
#
# Disc length: 954 seconds
#
# Revision: 0
# Processed by: cddbd v1.5.1PL0 Copyright (c) Steve Scherf et al.
# Submitted via: ExactAudioCopy v0.95a5
#
DISCID=2103b804
DTITLE=Jon Spencer Blues Explosion - Radio Session
DYEAR=2002
DGENRE=Blues Explosion
TTITLE0=Over And Over
TTITLE1=The Midnight Creep
TTITLE2=Killer Wolf
TTITLE3=Mean Heart
EXTD=
EXTT0=
EXTT1=
EXTT2=
EXTT3=
PLAYORDER=
